<?xml version="1.0" encoding="UTF-8"?>
<svg data-bbox="9.371 22.922 275.635 68.736" viewBox="0 0 294 103" height="103" width="294" xmlns="http://www.w3.org/2000/svg" data-type="color">
    <g>
        <defs>
            <clipPath id="bdda1ce1-c3ca-4b2d-8b91-fbd7b2df1f11">
                <path d="M294 0v103H0V0z"/>
            </clipPath>
        </defs>
        <g>
            <g clip-path="url(#bdda1ce1-c3ca-4b2d-8b91-fbd7b2df1f11)">
                <g>
                    <path fill="#007e61" d="M71.595 82.37a14.36 14.36 0 0 1-5.782 7.064c-.184.117-.372.225-.559.337-.094.05-.184.105-.278.155a13.6 13.6 0 0 1-6.37 1.68h-.193c-.135.006-.263.021-.4.023a886 886 0 0 1-12.09.015h.006c-1.581-.009-3.156-.018-4.725-.018s-3.144.009-4.722.018a870 870 0 0 1-12.09-.015c-.138 0-.266-.018-.4-.023h-.193a13.6 13.6 0 0 1-6.371-1.684c-.094-.05-.184-.105-.278-.155-.187-.111-.375-.22-.559-.337-4.104-2.543-6.762-7.156-7.005-13.082-.334-8.36-.226-16.751-.027-25.114a16.03 16.03 0 0 1 6.384-12.849l.4-.3a2 2 0 0 1-.02-.22v-9.436a1.467 1.467 0 0 1 1.465-1.467h6.118a1.467 1.467 0 0 1 1.467 1.467v2.936l.943-.7q1.3-.949 2.614-1.894c1.376-1 2.74-2.005 4.125-2.989a13.96 13.96 0 0 1 8.144-2.86 14 14 0 0 1 8.15 2.863c1.382.981 2.746 1.991 4.122 2.989.872.629 1.748 1.262 2.617 1.894q2.1 1.537 4.186 3.088c.331.249.665.489 1 .738h-.009c1.736 1.294 3.478 2.579 5.2 3.891a15.9 15.9 0 0 1 3.911 4.242 8.64 8.64 0 0 0-7.049-2.339 8.84 8.84 0 0 0-5.331 2.485 149 149 0 0 0-2.57-1.953l-9.927-7.19a7.3 7.3 0 0 0-4.1-1.651c-.064 0-.132-.006-.2-.006s-.132 0-.2.006a7.3 7.3 0 0 0-4.1 1.651l-9.93 7.19c-1.985 1.475-3.943 2.989-5.834 4.59a10.7 10.7 0 0 0-3.344 6.772c-.407 7.731-.266 15.5-.1 23.247.091 4.62 2.684 7.2 6.929 7.272 5.527.085 11.054.015 16.581.018 2.679 0 5.36.015 8.036.02.2.211.381.378.5.48a8.96 8.96 0 0 0 3.715 1.979c.348.091.708.164 1.06.22.12.015.246.023.392.044l.234.026a8.94 8.94 0 0 0 8.5-4.991 8.55 8.55 0 0 0 5.917 2.125 9.7 9.7 0 0 0 2.043-.255Z" data-color="1"/>
                    <g>
                        <path fill="#f9a200" d="M49.968 52.004v.06l.012-.006a.1.1 0 0 0-.012-.054" data-color="2"/>
                        <path fill="#f9a200" d="M78.347 57.85a4 4 0 0 0-.211-.407c-.032-.053-.073-.1-.111-.164l-.02-.035a.3.3 0 0 0-.047-.056c-.041-.05-.073-.1-.12-.158a2.7 2.7 0 0 0-.427-.483l-.006-.009a6 6 0 0 0-.284-.252 4.9 4.9 0 0 0-1.323-.779 6 6 0 0 0-.741-.22 4.5 4.5 0 0 0-2.117.067q-.105.031-.211.067c-.193.056-.384.123-.574.19-1.915.673-3.785 1.478-5.671 2.219-.536.217-1.054.48-1.651.758l-.269.123c.117-.228.17-.319.223-.413.015-.02.026-.044.041-.064a54 54 0 0 0 3.6-6.727 7 7 0 0 0 .436-1.227 5 5 0 0 0 .149-.916 4.4 4.4 0 0 0-.647-2.655c-.064-.105-.138-.208-.2-.313a4.48 4.48 0 0 0-4.359-1.979 4.8 4.8 0 0 0-2.529 1 4 4 0 0 0-1.341 2.061 47 47 0 0 0-1.03 5.609c-.155 1.03-.19 2.073-.29 3.191-.105-.19-.17-.3-.231-.419a56 56 0 0 0-2.058-3.7q-.913-1.511-1.953-2.963a4.74 4.74 0 0 0-6.66-1.025 5 5 0 0 0-1.7 2.5 4 4 0 0 0-.117.509c-.02.108-.029.211-.044.328a4.3 4.3 0 0 0 0 .972 2 2 0 0 0 .032.249 4.5 4.5 0 0 0 .58 1.581 3.8 3.8 0 0 0 .521.679 35 35 0 0 0 5.319 4.546c.565.433 1.165.837 1.748 1.262a.2.2 0 0 1-.026.076c-.509-.018-1.013-.064-1.516-.053-2.09.038-4.172.073-6.265.149a5.9 5.9 0 0 0-2.629.656 3 3 0 0 0-.442.269 4.756 4.756 0 0 0-1.528 6.031c.056.111.126.225.19.334a4.73 4.73 0 0 0 5.425 2.026c.451-.152.908-.322 1.355-.492 1.631-.6 3.235-1.279 4.851-1.906.325-.123.629-.284.94-.433.29-.141.585-.272.984-.463-.082.184-.105.246-.135.3-.834 1.528-1.692 3.045-2.523 4.581l-.767 1.437a6.86 6.86 0 0 0-1 3.624 7 7 0 0 0 .123.823 4.7 4.7 0 0 0 .533 1.282 4 4 0 0 0 .536.706 2.7 2.7 0 0 0 .366.363 4.8 4.8 0 0 0 2.023 1.074c.184.044.392.088.591.114.108.018.2.026.3.035a4.67 4.67 0 0 0 4.792-3.621c.217-1.191.4-2.38.568-3.58.138-.934.263-1.871.392-2.8.085-.6.1-1.206.158-1.909.155.281.263.436.351.624.3.594.609 1.189.928 1.771.167.3.331.588.509.881l.009.018c.094.176.2.345.3.521.064.108.12.22.179.316.05.079.105.155.155.234l.211.345c.132.222.275.439.419.656l.3.451q.19.28.386.556c.173.246.34.486.524.726a4.74 4.74 0 0 0 7.155.559 5.4 5.4 0 0 0 .984-1.516 2 2 0 0 0 .111-.261 5 5 0 0 0 .152-.527 4.5 4.5 0 0 0 .091-1.636 4 4 0 0 0-.105-.533 4.5 4.5 0 0 0-.536-1.268 5 5 0 0 0-.489-.676 4 4 0 0 0-.3-.328 43 43 0 0 0-2.266-2.055q-1.976-1.629-4.1-3.094c-.138-.088-.261-.193-.4-.281.588-.067 1.127-.026 1.666-.038 1.824-.032 3.636-.059 5.454-.123q.334-.01.667-.023a6.8 6.8 0 0 0 1.915-.331 4.6 4.6 0 0 0 1.168-.585 4.75 4.75 0 0 0 1.563-5.966Zm-28.376-5.782v-.061a.2.2 0 0 1 .009.056Zm12.023 13.926a3.44 3.44 0 1 1 1.159-4.726 3.44 3.44 0 0 1-1.159 4.723Z" data-color="2"/>
                    </g>
                    <g>
                        <path fill="#f5c300" d="m26.349 54.182.02.026v-.006s-.008-.017-.02-.02" data-color="3"/>
                        <path fill="#f5c300" d="M43.961 56.061a.6.6 0 0 0-.041-.143 2 2 0 0 0-.111-.269 2.3 2.3 0 0 0-.5-.706 3 3 0 0 0-.22-.184 2.4 2.4 0 0 0-.638-.345 3 3 0 0 0-.486-.129 2 2 0 0 0-.173-.023 21 21 0 0 0-1.613-.1c-.9-.015-1.809.009-2.717.073-.085.012-.173.009-.258.018a9 9 0 0 1 .676-.565c.831-.688 1.663-1.376 2.48-2.084a3.6 3.6 0 0 0 .679-.767 2.4 2.4 0 0 0 .287-.626A2.51 2.51 0 0 0 40 47.231a2 2 0 0 0-.222-.1c-.029-.012-.061-.018-.1-.032l-.02-.006a.1.1 0 0 0-.038-.009c-.032-.006-.061-.018-.1-.026a1.6 1.6 0 0 0-.337-.059h-.006c-.061-.006-.132-.009-.2-.012a2.6 2.6 0 0 0-.8.117 3 3 0 0 0-.381.152 2.3 2.3 0 0 0-.913.823q-.092.133-.176.269c-.568.91-1.077 1.862-1.61 2.787-.17.307-.31.629-.5 1a6 6 0 0 1-.044-.243 28 28 0 0 0-.738-4.008 3.7 3.7 0 0 0-.222-.65 3 3 0 0 0-.24-.427 2.35 2.35 0 0 0-1.148-.881c-.064-.023-.126-.041-.187-.064a2.37 2.37 0 0 0-2.453.624 2.24 2.24 0 0 0-.588 2.541 24 24 0 0 0 1.429 2.655c.275.474.606.916.934 1.414-.108-.044-.17-.067-.234-.1a31 31 0 0 0-2.073-.846 23 23 0 0 0-1.786-.577 2.507 2.507 0 0 0-3.088 1.777 2.64 2.64 0 0 0 .123 1.6 2 2 0 0 0 .12.249 2 2 0 0 0 .091.149 2 2 0 0 0 .322.4 1 1 0 0 0 .094.094 2.3 2.3 0 0 0 .761.46 2 2 0 0 0 .439.108 18.6 18.6 0 0 0 3.7.12c.378-.006.758-.038 1.142-.056l.015.041c-.217.161-.439.307-.644.477-.849.706-1.7 1.411-2.538 2.131a3.1 3.1 0 0 0-.867 1.142 1.4 1.4 0 0 0-.094.258 2.514 2.514 0 0 0 1.361 2.995c.061.029.129.053.19.076a2.51 2.51 0 0 0 2.91-.951q.203-.322.4-.653c.474-.785.913-1.6 1.376-2.386a6 6 0 0 0 .243-.492c.073-.152.152-.3.255-.515.026.105.035.138.044.17.158.9.3 1.815.468 2.725.053.281.1.562.158.846a3.6 3.6 0 0 0 .779 1.827 4 4 0 0 0 .325.3 2.5 2.5 0 0 0 .641.354 2.3 2.3 0 0 0 .457.114 1.4 1.4 0 0 0 .269.029 2.4 2.4 0 0 0 .354-.006 2.6 2.6 0 0 0 .834-.22c.091-.044.19-.094.281-.149a1 1 0 0 0 .138-.085 2.47 2.47 0 0 0 .782-3.08 29 29 0 0 0-.439-.787 40 40 0 0 0-.506-.875c-.252-.43-.509-.858-.761-1.288-.164-.275-.357-.527-.565-.837.158.061.252.091.351.141q.482.219.969.424.253.1.5.2h.009c.1.044.2.079.3.117.061.023.12.05.179.07s.094.029.141.047l.2.073q.193.07.389.132c.196.062.234.079.354.114q.13.04.261.076c.152.044.3.088.457.126a2.483 2.483 0 0 0 3.042-3.08ZM26.37 54.208l-.02-.026.023.02v.006Zm9.567 1.78a1.82 1.82 0 1 1-1.083-2.336 1.82 1.82 0 0 1 1.083 2.336" data-color="3"/>
                    </g>
                </g>
                <g>
                    <path fill="#00474b" d="M84.029 76.141a3.7 3.7 0 0 1 1.417-1.388 3.95 3.95 0 0 1 1.958-.5 4 4 0 0 1 2.169.6 3.4 3.4 0 0 1 1.379 1.695h-1.5a2.04 2.04 0 0 0-.823-.9 2.43 2.43 0 0 0-1.218-.3 2.7 2.7 0 0 0-1.35.34 2.36 2.36 0 0 0-.928.978 3.45 3.45 0 0 0 0 2.963 2.4 2.4 0 0 0 .928.984 2.6 2.6 0 0 0 1.35.345 2.46 2.46 0 0 0 1.218-.3 2 2 0 0 0 .823-.9h1.5a3.37 3.37 0 0 1-1.379 1.689 4 4 0 0 1-2.169.594 3.93 3.93 0 0 1-1.964-.5 3.73 3.73 0 0 1-1.411-1.388 4.13 4.13 0 0 1 0-4.017Z" data-color="4"/>
                    <path fill="#00474b" d="M93.487 81.693a2.8 2.8 0 0 1-1.086-1.1 3.3 3.3 0 0 1-.4-1.642 3.2 3.2 0 0 1 .407-1.636 2.8 2.8 0 0 1 1.109-1.1 3.4 3.4 0 0 1 3.138 0 2.84 2.84 0 0 1 1.11 1.1 3.23 3.23 0 0 1 .407 1.636 3.2 3.2 0 0 1-.416 1.636 2.9 2.9 0 0 1-1.136 1.1 3.3 3.3 0 0 1-1.587.389 3.1 3.1 0 0 1-1.549-.389Zm2.453-.928a1.77 1.77 0 0 0 .685-.691 2.2 2.2 0 0 0 .263-1.118 2.3 2.3 0 0 0-.252-1.115 1.7 1.7 0 0 0-.67-.685 1.8 1.8 0 0 0-.9-.231 1.8 1.8 0 0 0-.9.231 1.66 1.66 0 0 0-.653.685 2.36 2.36 0 0 0-.243 1.115 2.12 2.12 0 0 0 .5 1.511 1.65 1.65 0 0 0 1.256.533 1.84 1.84 0 0 0 .9-.231Z" data-color="4"/>
                    <path fill="#00474b" d="M103.749 76.129a2.1 2.1 0 0 1 .884.878 2.9 2.9 0 0 1 .319 1.405v3.569h-1.246V78.6a1.75 1.75 0 0 0-.407-1.247 1.44 1.44 0 0 0-1.11-.433 1.46 1.46 0 0 0-1.115.433 1.74 1.74 0 0 0-.413 1.247v3.381h-1.25v-6.048h1.25v.691a2.1 2.1 0 0 1 .785-.583 2.5 2.5 0 0 1 1.016-.208 2.7 2.7 0 0 1 1.279.3Z" data-color="4"/>
                    <path fill="#00474b" d="M109.076 76.955h-1.118v5.029h-1.262v-5.029h-.714v-1.022h.714v-.424a1.9 1.9 0 0 1 .553-1.519 2.62 2.62 0 0 1 1.739-.477v1.042a1.18 1.18 0 0 0-.8.214.98.98 0 0 0-.231.741v.427h1.118v1.022Z" data-color="4"/>
                    <path fill="#00474b" d="M110.25 74.9a.8.8 0 0 1 .571-1.373.74.74 0 0 1 .559.231.82.82 0 0 1 0 1.142.77.77 0 0 1-.559.231.78.78 0 0 1-.571-.231m1.186 1.033v6.048h-1.247v-6.048Z" data-color="4"/>
                    <path fill="#00474b" d="M113.047 77.314a2.8 2.8 0 0 1 1.03-1.092 2.76 2.76 0 0 1 1.443-.389 2.64 2.64 0 0 1 1.247.281 2.6 2.6 0 0 1 .852.7v-.878h1.262v6.048h-1.262v-.9a2.5 2.5 0 0 1-.867.714 2.8 2.8 0 0 1-2.679-.114 2.86 2.86 0 0 1-1.028-1.118 3.4 3.4 0 0 1-.378-1.631 3.35 3.35 0 0 1 .378-1.613Zm4.315.55a1.8 1.8 0 0 0-.676-.7 1.8 1.8 0 0 0-.9-.243 1.78 1.78 0 0 0-1.578.928 2.15 2.15 0 0 0-.258 1.08 2.25 2.25 0 0 0 .258 1.1 1.8 1.8 0 0 0 .682.72 1.75 1.75 0 0 0 .9.246 1.77 1.77 0 0 0 .9-.243 1.8 1.8 0 0 0 .676-.708 2.2 2.2 0 0 0 .258-1.092 2.2 2.2 0 0 0-.258-1.086Z" data-color="4"/>
                    <path fill="#00474b" d="M124.859 76.129a2.1 2.1 0 0 1 .884.878 2.9 2.9 0 0 1 .319 1.405v3.569h-1.241V78.6a1.75 1.75 0 0 0-.407-1.247 1.44 1.44 0 0 0-1.109-.433 1.46 1.46 0 0 0-1.115.433 1.74 1.74 0 0 0-.413 1.247v3.381h-1.25v-6.048h1.25v.691a2.1 2.1 0 0 1 .785-.583 2.5 2.5 0 0 1 1.016-.208 2.7 2.7 0 0 1 1.279.3Z" data-color="4"/>
                    <path fill="#00474b" d="M128.761 80.962h2.751v1.022h-4.2v-1.022l2.755-4.008h-2.755v-1.021h4.2v1.02Z" data-color="4"/>
                    <path fill="#00474b" d="M132.787 77.314a2.8 2.8 0 0 1 1.03-1.092 2.76 2.76 0 0 1 1.443-.389 2.64 2.64 0 0 1 1.247.281 2.6 2.6 0 0 1 .852.7v-.878h1.262v6.048h-1.262v-.9a2.5 2.5 0 0 1-.867.714 2.8 2.8 0 0 1-2.679-.114 2.86 2.86 0 0 1-1.028-1.118 3.45 3.45 0 0 1-.378-1.631 3.35 3.35 0 0 1 .378-1.613Zm4.312.55a1.8 1.8 0 0 0-.676-.7 1.8 1.8 0 0 0-.9-.243 1.78 1.78 0 0 0-1.578.928 2.15 2.15 0 0 0-.258 1.08 2.25 2.25 0 0 0 .258 1.1 1.8 1.8 0 0 0 .682.72 1.75 1.75 0 0 0 .9.246 1.77 1.77 0 0 0 .9-.243 1.8 1.8 0 0 0 .676-.708 2.2 2.2 0 0 0 .258-1.092 2.2 2.2 0 0 0-.258-1.086Z" data-color="4"/>
                    <path fill="#00474b" d="M143.083 77.314a2.76 2.76 0 0 1 2.485-1.481 2.65 2.65 0 0 1 1.247.287 2.4 2.4 0 0 1 .84.691v-.878h1.262v8.926h-1.262v-3.753a2.4 2.4 0 0 1-.858.691 2.76 2.76 0 0 1-1.273.287 2.64 2.64 0 0 1-1.423-.4 2.9 2.9 0 0 1-1.022-1.118 3.4 3.4 0 0 1-.378-1.631 3.35 3.35 0 0 1 .378-1.613Zm4.315.55a1.8 1.8 0 0 0-.676-.7 1.8 1.8 0 0 0-.9-.243 1.78 1.78 0 0 0-1.578.928 2.15 2.15 0 0 0-.258 1.08 2.25 2.25 0 0 0 .258 1.1 1.8 1.8 0 0 0 .682.72 1.77 1.77 0 0 0 1.8 0 1.8 1.8 0 0 0 .676-.708 2.2 2.2 0 0 0 .258-1.092 2.2 2.2 0 0 0-.258-1.086Z" data-color="4"/>
                    <path fill="#00474b" d="M156.042 75.933v6.048h-1.253v-.714a2.06 2.06 0 0 1-.773.588 2.4 2.4 0 0 1-1.016.214 2.7 2.7 0 0 1-1.279-.3 2.13 2.13 0 0 1-.89-.878 2.85 2.85 0 0 1-.325-1.405v-3.553h1.241v3.37a1.75 1.75 0 0 0 .407 1.247 1.45 1.45 0 0 0 1.109.433 1.46 1.46 0 0 0 1.113-.43 1.74 1.74 0 0 0 .413-1.247v-3.37h1.253Z" data-color="4"/>
                    <path fill="#00474b" d="M163.188 79.422h-4.622a1.66 1.66 0 0 0 .539 1.162 1.7 1.7 0 0 0 1.186.439 1.46 1.46 0 0 0 1.426-.846h1.35a2.73 2.73 0 0 1-.992 1.367 2.92 2.92 0 0 1-1.783.533 3.1 3.1 0 0 1-1.554-.389 2.77 2.77 0 0 1-1.074-1.1 3.34 3.34 0 0 1-.389-1.642 3.44 3.44 0 0 1 .378-1.642 2.63 2.63 0 0 1 1.066-1.092 3.2 3.2 0 0 1 1.575-.383 3.05 3.05 0 0 1 1.525.372 2.6 2.6 0 0 1 1.042 1.048 3.16 3.16 0 0 1 .372 1.555 4 4 0 0 1-.044.615Zm-1.262-1.01a1.43 1.43 0 0 0-.495-1.109 1.76 1.76 0 0 0-1.2-.416 1.6 1.6 0 0 0-1.109.413 1.7 1.7 0 0 0-.547 1.115h3.349Z" data-color="4"/>
                    <path fill="#00474b" d="M169.854 76.955h-1.118v5.029h-1.262v-5.029h-.714v-1.022h.714v-.424a1.9 1.9 0 0 1 .553-1.519 2.62 2.62 0 0 1 1.739-.477v1.042a1.18 1.18 0 0 0-.8.214.98.98 0 0 0-.231.741v.427h1.118v1.022Z" data-color="4"/>
                    <path fill="#00474b" d="M172.213 73.857v8.124h-1.25v-8.124Z" data-color="4"/>
                    <path fill="#00474b" d="M174.935 81.693a2.8 2.8 0 0 1-1.086-1.1 3.3 3.3 0 0 1-.4-1.642 3.2 3.2 0 0 1 .407-1.636 2.8 2.8 0 0 1 1.11-1.1 3.2 3.2 0 0 1 1.569-.383 3.2 3.2 0 0 1 1.569.383 2.84 2.84 0 0 1 1.109 1.1 3.27 3.27 0 0 1 .407 1.636 3.2 3.2 0 0 1-.416 1.636 2.9 2.9 0 0 1-1.136 1.1 3.3 3.3 0 0 1-1.587.389 3.1 3.1 0 0 1-1.546-.383m2.453-.928a1.77 1.77 0 0 0 .685-.691 2.2 2.2 0 0 0 .263-1.118 2.3 2.3 0 0 0-.252-1.115 1.7 1.7 0 0 0-.67-.685 1.8 1.8 0 0 0-.9-.231 1.8 1.8 0 0 0-.9.231 1.66 1.66 0 0 0-.653.685 2.36 2.36 0 0 0-.243 1.115 2.12 2.12 0 0 0 .5 1.511 1.65 1.65 0 0 0 1.256.533 1.84 1.84 0 0 0 .9-.231Z" data-color="4"/>
                    <path fill="#00474b" d="M182.846 76.093a2.15 2.15 0 0 1 1.08-.258v1.3h-.319a1.53 1.53 0 0 0-1.115.372 1.78 1.78 0 0 0-.378 1.294v3.185h-1.25v-6.053h1.25v.878a2 2 0 0 1 .729-.72Z" data-color="4"/>
                    <path fill="#00474b" d="M190.58 79.422h-4.626a1.66 1.66 0 0 0 .539 1.162 1.7 1.7 0 0 0 1.186.439 1.46 1.46 0 0 0 1.426-.846h1.35a2.72 2.72 0 0 1-.992 1.367 2.9 2.9 0 0 1-1.783.533 3.1 3.1 0 0 1-1.555-.389 2.77 2.77 0 0 1-1.074-1.1 3.34 3.34 0 0 1-.389-1.642 3.44 3.44 0 0 1 .378-1.642 2.63 2.63 0 0 1 1.066-1.092 3.15 3.15 0 0 1 1.575-.383 3.05 3.05 0 0 1 1.525.372 2.6 2.6 0 0 1 1.042 1.048 3.16 3.16 0 0 1 .372 1.555 4 4 0 0 1-.044.615Zm-1.262-1.01a1.43 1.43 0 0 0-.495-1.109 1.77 1.77 0 0 0-1.2-.416 1.6 1.6 0 0 0-1.109.413 1.7 1.7 0 0 0-.547 1.115h3.349Z" data-color="4"/>
                    <path fill="#00474b" d="M191.816 77.311a2.7 2.7 0 0 1 1.048-1.092 3.36 3.36 0 0 1 3.355.138 2.57 2.57 0 0 1 .972 1.487h-1.35a1.44 1.44 0 0 0-.527-.7 1.57 1.57 0 0 0-.911-.252 1.51 1.51 0 0 0-1.224.544 2.77 2.77 0 0 0 0 3.045 1.5 1.5 0 0 0 1.224.547 1.39 1.39 0 0 0 1.437-.954h1.35a2.7 2.7 0 0 1-.99 1.467 2.9 2.9 0 0 1-1.8.544 3 3 0 0 1-1.537-.389 2.75 2.75 0 0 1-1.048-1.1 3.76 3.76 0 0 1 0-3.285Z" data-color="4"/>
                    <path fill="#00474b" d="M203.941 79.422h-4.622a1.66 1.66 0 0 0 .539 1.162 1.7 1.7 0 0 0 1.186.439 1.46 1.46 0 0 0 1.426-.846h1.35a2.73 2.73 0 0 1-.992 1.367 2.9 2.9 0 0 1-1.783.533 3.1 3.1 0 0 1-1.554-.389 2.77 2.77 0 0 1-1.074-1.1 3.34 3.34 0 0 1-.389-1.642 3.44 3.44 0 0 1 .378-1.642 2.64 2.64 0 0 1 1.066-1.092 3.2 3.2 0 0 1 1.575-.383 3.05 3.05 0 0 1 1.525.372 2.6 2.6 0 0 1 1.042 1.048 3.16 3.16 0 0 1 .372 1.555 4 4 0 0 1-.044.615Zm-1.265-1.01a1.43 1.43 0 0 0-.495-1.109 1.77 1.77 0 0 0-1.2-.416 1.6 1.6 0 0 0-1.109.413 1.7 1.7 0 0 0-.547 1.115h3.35Z" data-color="4"/>
                    <path fill="#00474b" d="M213.569 79.422h-4.622a1.66 1.66 0 0 0 .539 1.162 1.7 1.7 0 0 0 1.186.439 1.46 1.46 0 0 0 1.426-.846h1.35a2.73 2.73 0 0 1-.992 1.367 2.92 2.92 0 0 1-1.783.533 3.1 3.1 0 0 1-1.554-.389 2.77 2.77 0 0 1-1.074-1.1 3.34 3.34 0 0 1-.389-1.642 3.44 3.44 0 0 1 .378-1.642 2.64 2.64 0 0 1 1.066-1.092 3.2 3.2 0 0 1 1.575-.383 3.05 3.05 0 0 1 1.525.372 2.6 2.6 0 0 1 1.042 1.048 3.16 3.16 0 0 1 .372 1.555 4 4 0 0 1-.044.615Zm-1.265-1.01a1.43 1.43 0 0 0-.495-1.109 1.76 1.76 0 0 0-1.2-.416 1.6 1.6 0 0 0-1.11.413 1.7 1.7 0 0 0-.547 1.115h3.349Z" data-color="4"/>
                    <path fill="#00474b" d="M219.173 76.129a2.1 2.1 0 0 1 .884.878 2.9 2.9 0 0 1 .319 1.405v3.569h-1.241V78.6a1.75 1.75 0 0 0-.407-1.247 1.44 1.44 0 0 0-1.109-.433 1.46 1.46 0 0 0-1.115.433 1.74 1.74 0 0 0-.413 1.247v3.381h-1.25v-6.048h1.25v.691a2.1 2.1 0 0 1 .785-.583 2.5 2.5 0 0 1 1.016-.208 2.7 2.7 0 0 1 1.279.3Z" data-color="4"/>
                    <path fill="#00474b" d="M224.782 77.311a2.7 2.7 0 0 1 1.048-1.092 3.36 3.36 0 0 1 3.355.138 2.57 2.57 0 0 1 .972 1.487h-1.35a1.44 1.44 0 0 0-.527-.7 1.57 1.57 0 0 0-.911-.252 1.51 1.51 0 0 0-1.224.544 2.77 2.77 0 0 0 0 3.045 1.5 1.5 0 0 0 1.224.547 1.39 1.39 0 0 0 1.437-.954h1.35a2.7 2.7 0 0 1-.99 1.467 2.92 2.92 0 0 1-1.8.544 3 3 0 0 1-1.537-.389 2.75 2.75 0 0 1-1.048-1.1 3.76 3.76 0 0 1 0-3.285Z" data-color="4"/>
                    <path fill="#00474b" d="M231.369 77.314a2.8 2.8 0 0 1 1.03-1.092 2.76 2.76 0 0 1 1.443-.389 2.64 2.64 0 0 1 1.247.281 2.6 2.6 0 0 1 .852.7v-.878h1.262v6.048h-1.262v-.9a2.5 2.5 0 0 1-.867.714 2.8 2.8 0 0 1-2.679-.114 2.86 2.86 0 0 1-1.028-1.118 3.45 3.45 0 0 1-.378-1.631 3.35 3.35 0 0 1 .378-1.613Zm4.315.55a1.8 1.8 0 0 0-.676-.7 1.8 1.8 0 0 0-.9-.243 1.78 1.78 0 0 0-1.578.928 2.15 2.15 0 0 0-.258 1.08 2.24 2.24 0 0 0 .258 1.1 1.8 1.8 0 0 0 .682.72 1.75 1.75 0 0 0 .9.246 1.77 1.77 0 0 0 .9-.243 1.8 1.8 0 0 0 .676-.708 2.2 2.2 0 0 0 .258-1.092 2.2 2.2 0 0 0-.258-1.086Z" data-color="4"/>
                    <path fill="#00474b" d="M238.814 77.314a2.76 2.76 0 0 1 2.485-1.481 2.8 2.8 0 0 1 1.168.258 2.4 2.4 0 0 1 .916.685v-2.922h1.262v8.12h-1.262v-.91a2.34 2.34 0 0 1-.852.726 2.65 2.65 0 0 1-1.247.287 2.7 2.7 0 0 1-1.443-.4 2.8 2.8 0 0 1-1.031-1.118 3.45 3.45 0 0 1-.378-1.631 3.35 3.35 0 0 1 .378-1.613Zm4.315.55a1.8 1.8 0 0 0-.676-.7 1.8 1.8 0 0 0-.9-.243 1.78 1.78 0 0 0-1.578.928 2.15 2.15 0 0 0-.258 1.08 2.25 2.25 0 0 0 .258 1.1 1.8 1.8 0 0 0 .682.72 1.75 1.75 0 0 0 .9.246 1.77 1.77 0 0 0 .9-.243 1.8 1.8 0 0 0 .676-.708 2.2 2.2 0 0 0 .258-1.092 2.2 2.2 0 0 0-.258-1.086Z" data-color="4"/>
                    <path fill="#00474b" d="M246.255 77.314a2.8 2.8 0 0 1 1.031-1.092 2.76 2.76 0 0 1 1.443-.389 2.64 2.64 0 0 1 1.247.281 2.6 2.6 0 0 1 .852.7v-.878h1.262v6.048h-1.263v-.9a2.5 2.5 0 0 1-.867.714 2.8 2.8 0 0 1-2.679-.114 2.86 2.86 0 0 1-1.028-1.118 3.45 3.45 0 0 1-.378-1.631 3.35 3.35 0 0 1 .378-1.613Zm4.315.55a1.8 1.8 0 0 0-.676-.7 1.8 1.8 0 0 0-.9-.243 1.78 1.78 0 0 0-1.578.928 2.15 2.15 0 0 0-.258 1.08 2.25 2.25 0 0 0 .258 1.1 1.8 1.8 0 0 0 .682.72 1.75 1.75 0 0 0 .9.246 1.77 1.77 0 0 0 .9-.243 1.8 1.8 0 0 0 .676-.708 2.2 2.2 0 0 0 .258-1.092 2.2 2.2 0 0 0-.258-1.086Z" data-color="4"/>
                    <path fill="#00474b" d="M258.712 76.12a2.65 2.65 0 0 1 1.241-.287 2.75 2.75 0 0 1 2.471 1.481 3.4 3.4 0 0 1 .375 1.613 3.5 3.5 0 0 1-.375 1.631 2.77 2.77 0 0 1-1.028 1.118 2.7 2.7 0 0 1-1.443.4 2.6 2.6 0 0 1-1.229-.281 2.7 2.7 0 0 1-.878-.7v3.753h-1.25v-8.926h1.25v.89a2.5 2.5 0 0 1 .867-.7Zm2.553 1.727a1.75 1.75 0 0 0-.679-.691 1.8 1.8 0 0 0-.9-.237 1.77 1.77 0 0 0-.9.243 1.8 1.8 0 0 0-.682.7 2.2 2.2 0 0 0-.258 1.086 2.2 2.2 0 0 0 .258 1.092 1.782 1.782 0 0 0 3.162-.015 2.24 2.24 0 0 0 .258-1.1 2.14 2.14 0 0 0-.258-1.08Z" data-color="4"/>
                    <path fill="#00474b" d="M264.001 77.314a2.8 2.8 0 0 1 1.03-1.092 2.76 2.76 0 0 1 1.443-.389 2.64 2.64 0 0 1 1.247.281 2.6 2.6 0 0 1 .852.7v-.878h1.262v6.048h-1.264v-.9a2.5 2.5 0 0 1-.867.714 2.8 2.8 0 0 1-2.679-.114 2.86 2.86 0 0 1-1.028-1.118 3.45 3.45 0 0 1-.378-1.631 3.35 3.35 0 0 1 .378-1.613Zm4.312.55a1.8 1.8 0 0 0-.676-.7 1.8 1.8 0 0 0-.9-.243 1.78 1.78 0 0 0-1.578.928 2.15 2.15 0 0 0-.258 1.08 2.25 2.25 0 0 0 .258 1.1 1.8 1.8 0 0 0 .682.72 1.75 1.75 0 0 0 .9.246 1.77 1.77 0 0 0 .9-.243 1.8 1.8 0 0 0 .676-.708 2.2 2.2 0 0 0 .258-1.092 2.2 2.2 0 0 0-.258-1.086Z" data-color="4"/>
                    <path fill="#00474b" d="M272.397 81.823a2.26 2.26 0 0 1-.9-.7 1.75 1.75 0 0 1-.351-.992h1.294a.87.87 0 0 0 .369.641 1.33 1.33 0 0 0 .84.258 1.45 1.45 0 0 0 .817-.2.61.61 0 0 0 .29-.521.53.53 0 0 0-.325-.5 6 6 0 0 0-1.027-.363 10 10 0 0 1-1.109-.363 1.9 1.9 0 0 1-.741-.539 1.4 1.4 0 0 1-.313-.954 1.5 1.5 0 0 1 .287-.884 1.9 1.9 0 0 1 .817-.632 3 3 0 0 1 1.224-.231 2.52 2.52 0 0 1 1.663.521 1.87 1.87 0 0 1 .676 1.423h-1.253a.88.88 0 0 0-.331-.647 1.24 1.24 0 0 0-.8-.243 1.3 1.3 0 0 0-.758.187.58.58 0 0 0-.263.495.54.54 0 0 0 .176.407 1.3 1.3 0 0 0 .427.258q.25.092.747.237a8 8 0 0 1 1.08.357 2 2 0 0 1 .729.533 1.42 1.42 0 0 1 .319.934 1.57 1.57 0 0 1-.287.922 1.9 1.9 0 0 1-.808.638 3 3 0 0 1-1.224.231 3.1 3.1 0 0 1-1.279-.258Z" data-color="4"/>
                    <path fill="#00474b" d="M278.416 81.693a2.8 2.8 0 0 1-1.086-1.1 3.3 3.3 0 0 1-.4-1.642 3.2 3.2 0 0 1 .407-1.636 2.8 2.8 0 0 1 1.109-1.1 3.2 3.2 0 0 1 1.569-.383 3.24 3.24 0 0 1 1.569.383 2.84 2.84 0 0 1 1.109 1.1 3.23 3.23 0 0 1 .407 1.636 3.2 3.2 0 0 1-.416 1.636 2.9 2.9 0 0 1-1.136 1.1 3.3 3.3 0 0 1-1.587.389 3.1 3.1 0 0 1-1.549-.389Zm2.456-.928a1.77 1.77 0 0 0 .685-.691 2.2 2.2 0 0 0 .263-1.118 2.3 2.3 0 0 0-.252-1.115 1.7 1.7 0 0 0-.67-.685 1.85 1.85 0 0 0-.9-.231 1.8 1.8 0 0 0-.9.231 1.66 1.66 0 0 0-.653.685 2.36 2.36 0 0 0-.243 1.115 2.12 2.12 0 0 0 .5 1.511 1.65 1.65 0 0 0 1.256.533 1.84 1.84 0 0 0 .9-.231Z" data-color="4"/>
                </g>
                <g>
                    <path d="M84.248 69.414V45.663h5.928l-.018 19.046h9.374v4.7H84.248Z" fill="#000000" data-color="5"/>
                    <path d="m119.43 69.414-1.142-3.776h-9.025l-1.127 3.776h-6.127l7.155-23.751h9.224l7.151 23.751h-6.113Zm-8.779-8.481h6.244l-3.115-10.419z" fill="#000000" data-color="5"/>
                    <path d="m145.116 52.089-5.928.43a3.14 3.14 0 0 0-1.036-1.9 3.05 3.05 0 0 0-2.029-.67 3.6 3.6 0 0 0-2.251.621 2.09 2.09 0 0 0-.8 1.748 1.5 1.5 0 0 0 .19.752 2 2 0 0 0 .471.571 3.7 3.7 0 0 0 .77.463 8 8 0 0 0 .869.357q.382.125.992.29 1.44.43 2.418.761t2.061.761a13 13 0 0 1 1.78.837 11 11 0 0 1 1.367.96 4.6 4.6 0 0 1 1.042 1.168 5.4 5.4 0 0 1 .588 1.408 6.6 6.6 0 0 1 .217 1.739 6.37 6.37 0 0 1-2.567 5.433 13.73 13.73 0 0 1-13.812.015 6.68 6.68 0 0 1-2.8-5.366l5.928-.413a3.08 3.08 0 0 0 1.2 2.137 4.1 4.1 0 0 0 2.526.746 4.8 4.8 0 0 0 2.55-.621 2.03 2.03 0 0 0 .992-1.8 1.67 1.67 0 0 0-.272-.969 3 3 0 0 0-.72-.779 6.5 6.5 0 0 0-1.142-.656 12 12 0 0 0-1.317-.53c-.4-.132-.9-.293-1.481-.48-.653-.2-1.189-.366-1.616-.506s-.9-.3-1.426-.489a11 11 0 0 1-1.259-.521 18 18 0 0 1-1.042-.58 4.2 4.2 0 0 1-.9-.679 9 9 0 0 1-.662-.787 3.3 3.3 0 0 1-.506-.96 8.1 8.1 0 0 1-.381-2.518 5.9 5.9 0 0 1 1.2-3.744 6.8 6.8 0 0 1 3.188-2.245 13.8 13.8 0 0 1 4.587-.7 10.73 10.73 0 0 1 6.294 1.716 6.33 6.33 0 0 1 2.7 4.994Z" fill="#000000" data-color="5"/>
                    <path d="M157.637 45.663h16.777v4.7h-10.867v5h9.822v4.719h-9.8v9.324h-5.928V45.663Z" fill="#000000" data-color="5"/>
                    <path d="M178.407 69.414V45.663h5.928l-.018 19.046h9.374v4.7h-15.287Z" fill="#000000" data-color="5"/>
                    <path d="M207.424 69.695a13.3 13.3 0 0 1-6.376-1.522 11.4 11.4 0 0 1-4.505-4.315 12.87 12.87 0 0 1 0-12.635 11.4 11.4 0 0 1 4.505-4.315 14.1 14.1 0 0 1 12.743 0 11.3 11.3 0 0 1 4.505 4.315 12.93 12.93 0 0 1 0 12.635 11.3 11.3 0 0 1-4.505 4.315 13.3 13.3 0 0 1-6.367 1.522m-4.768-7.345a6.9 6.9 0 0 0 9.538 0 6.91 6.91 0 0 0 .009-9.626 6.965 6.965 0 0 0-9.555 0 6.91 6.91 0 0 0 .009 9.626Z" fill="#000000" data-color="5"/>
                    <path d="M242.519 54.258a8.76 8.76 0 0 1-1.227 4.678 7.48 7.48 0 0 1-3.545 2.989l4.587 7.486h-5.963l-3.976-6.593h-3.361v6.593h-5.927V45.66h9.87q4.554 0 7.046 2.368a8.2 8.2 0 0 1 2.491 6.227Zm-13.5 3.844h3.328a4.3 4.3 0 0 0 3.056-1.1 3.81 3.81 0 0 0 .018-5.507 4.27 4.27 0 0 0-3.071-1.127h-3.329v7.734Z" fill="#000000" data-color="5"/>
                    <path d="M245.982 45.663h16.628v4.7h-10.7v5h9.672v4.719h-9.672v4.62h11.209v4.7h-17.14V45.663Z" fill="#000000" data-color="5"/>
                    <path d="m284.274 52.089-5.928.43a3.14 3.14 0 0 0-1.036-1.9 3.05 3.05 0 0 0-2.029-.67 3.6 3.6 0 0 0-2.251.621 2.09 2.09 0 0 0-.8 1.748 1.5 1.5 0 0 0 .19.752 2 2 0 0 0 .471.571 3.6 3.6 0 0 0 .77.463 8 8 0 0 0 .869.357q.383.125.992.29 1.44.43 2.418.761t2.061.761a13 13 0 0 1 1.78.837 11 11 0 0 1 1.367.96 4.6 4.6 0 0 1 1.042 1.168 5.4 5.4 0 0 1 .592 1.411 6.6 6.6 0 0 1 .217 1.739 6.37 6.37 0 0 1-2.567 5.433 13.73 13.73 0 0 1-13.812.015 6.68 6.68 0 0 1-2.8-5.366l5.928-.413a3.08 3.08 0 0 0 1.2 2.137 4.1 4.1 0 0 0 2.526.746 4.8 4.8 0 0 0 2.55-.621 2.03 2.03 0 0 0 .992-1.8 1.67 1.67 0 0 0-.272-.969 3 3 0 0 0-.72-.779 6.5 6.5 0 0 0-1.142-.656 12 12 0 0 0-1.317-.53c-.4-.132-.9-.293-1.481-.48-.653-.2-1.189-.366-1.616-.506s-.9-.3-1.426-.489a11 11 0 0 1-1.26-.518 18 18 0 0 1-1.042-.58 4.2 4.2 0 0 1-.9-.679 9 9 0 0 1-.662-.787 3.3 3.3 0 0 1-.506-.96 8.1 8.1 0 0 1-.381-2.518 5.9 5.9 0 0 1 1.2-3.744 6.8 6.8 0 0 1 3.188-2.245 13.7 13.7 0 0 1 4.587-.7 10.73 10.73 0 0 1 6.294 1.716 6.34 6.34 0 0 1 2.7 4.994Z" fill="#000000" data-color="5"/>
                </g>
            </g>
        </g>
    </g>
</svg>
