<?xml version="1.0" encoding="UTF-8"?>
<svg data-bbox="0.029 0 941.521 234.796" viewBox="0 0 941.56 234.8" xmlns="http://www.w3.org/2000/svg" data-type="color">
    <g>
        <path d="M212.58 203.07c-4.09 10.41-10.94 18.66-19.75 24.13-.63.4-1.27.77-1.91 1.15-.32.17-.63.36-.95.53-6.47 3.55-13.83 5.61-21.76 5.74h-.66c-.46.02-.9.07-1.37.08-13.77.14-27.53.1-41.3.05l.02.01c-5.4-.03-10.78-.06-16.14-.06s-10.74.03-16.13.06c0-.01.01-.01.01-.01-13.77.05-27.53.09-41.3-.05-.47-.01-.91-.06-1.37-.08h-.66c-7.93-.13-15.29-2.19-21.76-5.74-.32-.17-.63-.36-.95-.53-.64-.38-1.28-.75-1.91-1.15-14.02-8.7-23.1-24.46-23.93-44.7-1.14-28.56-.77-57.22-.09-85.79.43-18.17 7.92-33.35 21.79-43.89.46-.35.92-.69 1.38-1.04-.03-.25-.07-.49-.07-.75V18.81c0-2.76 2.24-5.01 5.01-5.01h20.9c2.76 0 5.01 2.24 5.01 5.01v10.03c1.07-.79 2.14-1.59 3.22-2.38 2.97-2.16 5.95-4.32 8.93-6.47 4.7-3.41 9.36-6.85 14.09-10.21C90.1 3.25 99.42 0 108.75 0c9.32 0 18.65 3.25 27.84 9.78 4.72 3.35 9.38 6.8 14.08 10.21 2.98 2.15 5.97 4.31 8.94 6.47 4.78 3.5 9.54 7.01 14.3 10.55 1.13.85 2.27 1.67 3.41 2.52-.01 0-.02 0-.03.01 5.93 4.42 11.88 8.81 17.77 13.29 5.46 4.15 9.93 9 13.36 14.49-6.37-6.11-14.84-8.98-24.08-7.99-7.33.85-13.6 3.85-18.21 8.49-2.9-2.26-5.84-4.48-8.78-6.67l-33.91-24.56c-4.72-3.56-9.36-5.46-14.02-5.64-.22-.01-.45-.02-.67-.02s-.45.01-.67.02c-4.66.18-9.29 2.08-14.01 5.64L60.15 61.15c-6.78 5.04-13.47 10.21-19.93 15.68-5.93 4.99-10.97 15.06-11.43 23.12-1.39 26.41-.91 52.95-.34 79.41.31 15.78 9.17 24.61 23.67 24.84 18.88.29 37.76.05 56.64.06 9.15 0 18.31.05 27.45.07.68.72 1.3 1.29 1.7 1.64 3.63 3.23 8.09 5.6 12.69 6.76 1.19.31 2.42.56 3.62.75.41.05.84.08 1.34.15l.8.09c12.12.88 23.88-6.37 29.03-17.05 5.58 4.89 12.56 7.42 20.22 7.26 2.42-.05 4.76-.34 6.98-.87Z" fill="#ffffff" data-color="1"/>
        <path d="M138.7 99.34v.21l.04-.02c-.01-.08 0-.13-.04-.19" fill="#ffffff" data-color="1"/>
        <path d="M235.64 119.31c-.2-.46-.45-.94-.72-1.39-.11-.18-.25-.35-.38-.56l-.07-.12c-.04-.06-.08-.12-.16-.19-.14-.17-.25-.35-.41-.54-.4-.59-.91-1.16-1.46-1.65l-.02-.03c-.29-.28-.63-.57-.97-.86-1.38-1.12-2.89-2.03-4.52-2.66-.83-.33-1.7-.54-2.53-.75-2.37-.48-4.87-.45-7.23.23-.24.07-.48.15-.72.23-.66.19-1.31.42-1.96.65-6.54 2.3-12.93 5.05-19.37 7.58-1.83.74-3.6 1.64-5.64 2.59-.3.14-.61.28-.92.42.4-.78.58-1.09.76-1.41.05-.07.09-.15.14-.22 4.68-7.33 8.69-15.03 12.3-22.98.62-1.37 1.15-2.77 1.49-4.19.28-1.04.44-2.09.51-3.13.22-3.07-.43-6.13-2.21-9.07-.22-.36-.47-.71-.69-1.07-3.62-5.08-8.65-7.43-14.89-6.76-3.38.4-6.33 1.52-8.64 3.42-2.12 1.7-3.72 4.05-4.58 7.04-1.78 6.19-2.5 12.73-3.52 19.16-.53 3.52-.65 7.08-.99 10.9-.36-.65-.58-1.02-.79-1.43a192 192 0 0 0-7.03-12.64c-2.08-3.44-4.3-6.82-6.67-10.12-5.23-7.26-15.88-8.94-22.75-3.5-2.91 2.31-4.88 5.32-5.82 8.55-.16.55-.31 1.14-.4 1.74-.07.37-.1.72-.15 1.12-.12 1.11-.12 2.19.01 3.32.01.29.07.58.11.85.31 1.88.97 3.73 1.98 5.4.49.82 1.08 1.59 1.78 2.32 5.33 5.99 11.77 10.73 18.17 15.53 1.93 1.48 3.98 2.86 5.97 4.31-.02.1-.04.2-.09.26-1.74-.06-3.46-.22-5.18-.18-7.14.13-14.25.25-21.4.51-3.14.16-6.22.7-8.98 2.24-.52.23-1.02.58-1.51.92-6.65 4.73-8.78 13.21-5.22 20.6.19.38.43.77.65 1.14 3.67 6.04 11.56 9.27 18.53 6.92 1.54-.52 3.1-1.1 4.63-1.68 5.57-2.04 11.05-4.37 16.57-6.51 1.11-.42 2.15-.97 3.21-1.48.99-.48 2-.93 3.36-1.58-.28.63-.36.84-.46 1.02-2.85 5.22-5.78 10.4-8.62 15.65-.87 1.64-1.75 3.27-2.62 4.91-2 3.83-3.71 7.81-3.43 12.38.08.95.23 1.89.42 2.81.39 1.54.99 3.01 1.82 4.38.53.88 1.14 1.68 1.83 2.41.36.45.82.88 1.25 1.24 1.92 1.74 4.26 2.98 6.91 3.67.63.15 1.34.3 2.02.39.37.06.67.09 1.03.12 7.39.55 15-4.98 16.37-12.37.74-4.07 1.35-8.13 1.94-12.23.47-3.19.9-6.39 1.34-9.56.29-2.05.33-4.12.54-6.52.53.96.9 1.49 1.2 2.13 1.03 2.03 2.08 4.06 3.17 6.05a90 90 0 0 0 1.74 3.01l.03.06c.32.6.67 1.18 1.04 1.78.22.37.41.75.61 1.08.17.27.36.53.53.8l.72 1.18c.45.76.94 1.5 1.43 2.24.33.52.67 1.03 1.02 1.54.43.64.87 1.27 1.32 1.9.59.84 1.16 1.66 1.79 2.48 3.25 4.42 7.66 6.69 13.17 6.6 4.66-.09 8.44-1.69 11.27-4.69 1.34-1.43 2.46-3.15 3.36-5.18.15-.29.27-.58.38-.89.22-.59.37-1.22.52-1.8.45-1.86.55-3.75.31-5.59-.08-.62-.21-1.24-.36-1.82-.37-1.51-1-2.96-1.83-4.33-.48-.8-1.04-1.57-1.67-2.31-.32-.39-.66-.76-1.02-1.12-2.48-2.44-5.09-4.76-7.74-7.02-4.5-3.71-9.16-7.23-14.01-10.57-.47-.3-.89-.66-1.36-.96 2.01-.23 3.85-.09 5.69-.13 6.23-.11 12.42-.2 18.63-.42.76-.02 1.52-.05 2.28-.08 2.22-.1 4.45-.41 6.54-1.13 1.38-.47 2.7-1.1 3.99-2 6.54-4.55 8.78-13.05 5.34-20.38Zm-96.93-19.76v-.21c.03.06.02.11.03.19zm41.07 47.57a11.75 11.75 0 0 1-16.15-3.96c-3.37-5.56-1.59-12.78 3.97-16.14 5.56-3.37 12.78-1.6 16.14 3.96 3.38 5.56 1.6 12.78-3.96 16.14" fill="#ffffff" data-color="1"/>
        <path d="m58.02 106.78.07.09v-.02s-.03-.06-.07-.07" fill="#ffffff" data-color="1"/>
        <path d="M118.18 113.2c-.03-.17-.07-.33-.14-.49-.1-.32-.24-.63-.38-.92-.42-.91-1-1.73-1.71-2.41-.24-.22-.5-.44-.75-.63-.65-.5-1.39-.89-2.18-1.18-.53-.19-1.08-.34-1.66-.44-.19-.03-.39-.06-.59-.08-1.82-.19-3.68-.29-5.51-.34-3.08-.05-6.18.03-9.28.25-.29.04-.59.03-.88.06.76-.76 1.56-1.31 2.31-1.93 2.84-2.35 5.68-4.7 8.47-7.12.88-.77 1.69-1.63 2.32-2.62.41-.65.75-1.34.98-2.14 1.2-4.04-.68-8.29-4.53-10.18a5 5 0 0 0-.76-.34c-.1-.04-.21-.06-.34-.11l-.07-.02s-.07-.03-.13-.03c-.11-.02-.21-.06-.34-.09-.36-.11-.76-.17-1.15-.2h-.02c-.21-.02-.45-.03-.68-.04-.94 0-1.86.12-2.74.4-.45.13-.89.33-1.3.52-1.25.64-2.36 1.59-3.12 2.81-.21.3-.41.61-.6.92-1.94 3.11-3.68 6.36-5.5 9.52-.58 1.05-1.06 2.15-1.71 3.42-.09-.45-.12-.64-.15-.83-.48-4.63-1.38-9.17-2.52-13.69-.19-.77-.44-1.52-.76-2.22-.23-.52-.51-1-.82-1.46-.93-1.34-2.21-2.38-3.92-3.01-.22-.08-.43-.14-.64-.22-3.17-.9-6.03-.2-8.38 2.13-2.42 2.45-3.33 5.51-2.01 8.68 1.31 3.14 3.17 6.09 4.88 9.07.94 1.62 2.07 3.13 3.19 4.83-.37-.15-.58-.23-.8-.33-2.33-1.05-4.68-2.01-7.08-2.89-1.99-.73-4.03-1.4-6.1-1.97-4.56-1.27-9.5 1.55-10.55 6.07-.44 1.91-.26 3.81.42 5.46.11.28.25.57.41.85.09.17.19.33.31.51.31.5.67.94 1.1 1.36.09.12.22.22.32.32.75.67 1.63 1.22 2.6 1.57.47.18.97.3 1.5.37 4.18.71 8.4.54 12.63.41 1.29-.02 2.59-.13 3.9-.19.02.05.04.1.05.14-.74.55-1.5 1.05-2.2 1.63-2.9 2.41-5.8 4.82-8.67 7.28-1.24 1.1-2.33 2.34-2.96 3.9-.14.27-.23.57-.32.88-1.18 4.15.73 8.35 4.65 10.23.21.1.44.18.65.26 3.51 1.28 7.83.01 9.94-3.25.46-.73.92-1.48 1.35-2.23 1.62-2.68 3.12-5.45 4.7-8.15.32-.55.57-1.11.83-1.68.25-.52.52-1.04.87-1.76.09.36.12.47.15.58.54 3.09 1.04 6.2 1.6 9.31.18.96.35 1.92.54 2.89.43 2.24 1.04 4.45 2.66 6.24.35.37.73.7 1.11 1.02.67.51 1.4.92 2.19 1.21.51.19 1.03.31 1.56.39.29.07.62.09.92.1.4.02.81.02 1.21-.02.96-.09 1.92-.33 2.85-.75.31-.15.65-.32.96-.51.18-.09.31-.18.47-.29 3.22-2.21 4.55-7.01 2.67-10.52-.49-.9-.98-1.8-1.5-2.69-.56-1-1.14-2-1.73-2.99-.86-1.47-1.74-2.93-2.6-4.4-.56-.94-1.22-1.8-1.93-2.86.54.21.86.31 1.2.48 1.1.5 2.2.98 3.31 1.45.58.23 1.14.45 1.72.67h.03c.33.15.67.27 1.02.4.21.08.41.17.61.24.16.06.32.1.48.16l.69.25c.44.16.88.31 1.33.45.4.14.8.27 1.21.39.3.09.59.18.89.26.52.15 1.03.3 1.56.43 2.8.75 5.38.23 7.61-1.62 2.79-2.31 3.72-5.38 2.78-8.9Zm-60.09-6.33-.07-.09s.05.04.08.07v.02Zm32.68 6.08a6.216 6.216 0 0 1-7.97 3.7c-3.23-1.18-4.89-4.75-3.71-7.97a6.22 6.22 0 0 1 7.98-3.71c3.22 1.19 4.88 4.76 3.7 7.98" fill="#ffffff" data-color="1"/>
        <path d="M255.05 181.79c1.19-2.02 2.8-3.61 4.84-4.74q3.06-1.71 6.69-1.71c2.78 0 5.24.68 7.41 2.04q3.24 2.04 4.71 5.79h-5.14c-.68-1.37-1.61-2.4-2.81-3.08s-2.59-1.01-4.16-1.01c-1.72 0-3.26.39-4.61 1.16s-2.41 1.89-3.17 3.34-1.14 3.14-1.14 5.06.38 3.61 1.14 5.06 1.82 2.57 3.17 3.36 2.89 1.18 4.61 1.18c1.57 0 2.96-.34 4.16-1.01 1.2-.68 2.14-1.7 2.81-3.08h5.14c-.98 2.5-2.54 4.42-4.71 5.77-2.16 1.35-4.63 2.03-7.41 2.03-2.45 0-4.69-.57-6.71-1.71-2.03-1.14-3.63-2.72-4.82-4.74-1.19-2.03-1.78-4.31-1.78-6.86s.59-4.84 1.78-6.86Z" fill="#ffffff" data-color="1"/>
        <path d="M287.36 200.75c-1.57-.89-2.81-2.14-3.71-3.75q-1.35-2.415-1.35-5.61c0-3.195.46-3.96 1.39-5.59a9.56 9.56 0 0 1 3.79-3.75c1.6-.88 3.39-1.31 5.36-1.31s3.76.44 5.36 1.31c1.6.88 2.86 2.13 3.79 3.75s1.39 3.49 1.39 5.59-.47 3.96-1.42 5.59a9.83 9.83 0 0 1-3.88 3.77c-1.64.89-3.44 1.33-5.42 1.33s-3.71-.44-5.29-1.33Zm8.38-3.17c.96-.53 1.74-1.31 2.34-2.36s.9-2.32.9-3.82-.29-2.77-.86-3.81c-.58-1.04-1.34-1.82-2.29-2.34-.95-.53-1.98-.79-3.08-.79s-2.12.26-3.06.79-1.68 1.31-2.23 2.34c-.55 1.04-.83 2.31-.83 3.81 0 2.23.57 3.94 1.71 5.16 1.14 1.21 2.57 1.82 4.29 1.82 1.1 0 2.13-.26 3.09-.79Z" fill="#ffffff" data-color="1"/>
        <path d="M322.41 181.75c1.29.67 2.29 1.67 3.02 3s1.09 2.93 1.09 4.8v12.19h-4.24v-11.55c0-1.85-.46-3.27-1.39-4.26-.92-.99-2.19-1.48-3.79-1.48s-2.87.49-3.81 1.48q-1.41 1.485-1.41 4.26v11.55h-4.27v-20.66h4.27v2.36c.7-.85 1.59-1.51 2.68-1.99a8.65 8.65 0 0 1 3.47-.71c1.63 0 3.08.34 4.37 1.01Z" fill="#ffffff" data-color="1"/>
        <path d="M340.61 184.57h-3.82v17.18h-4.31v-17.18h-2.44v-3.49h2.44v-1.46c0-2.37.63-4.11 1.89-5.19 1.26-1.09 3.24-1.63 5.94-1.63v3.56c-1.3 0-2.21.24-2.74.73s-.79 1.33-.79 2.53v1.46h3.82v3.49Z" fill="#ffffff" data-color="1"/>
        <path d="M344.62 177.55c-.53-.53-.79-1.18-.79-1.95s.26-1.42.79-1.95 1.18-.79 1.95-.79 1.39.26 1.91.79c.53.53.79 1.18.79 1.95s-.26 1.42-.79 1.95c-.52.52-1.16.79-1.91.79s-1.42-.26-1.95-.79m4.05 3.53v20.66h-4.27v-20.66z" fill="#ffffff" data-color="1"/>
        <path d="M354.17 185.8c.86-1.6 2.04-2.84 3.52-3.73 1.49-.89 3.13-1.33 4.93-1.33 1.63 0 3.04.32 4.26.96 1.21.64 2.18 1.43 2.91 2.38v-3h4.31v20.66h-4.31v-3.08c-.73.98-1.71 1.79-2.96 2.44s-2.68.98-4.27.98c-1.78 0-3.4-.46-4.88-1.37s-2.64-2.19-3.51-3.82-1.29-3.49-1.29-5.57.43-3.91 1.29-5.51Zm14.74 1.88q-.885-1.575-2.31-2.4c-.95-.55-1.98-.83-3.08-.83s-2.13.27-3.08.81-1.72 1.33-2.31 2.36c-.59 1.04-.88 2.27-.88 3.69s.29 2.68.88 3.75c.59 1.08 1.36 1.89 2.33 2.46q1.44.84 3.06.84c1.62 0 2.12-.27 3.08-.83.95-.55 1.72-1.36 2.31-2.42s.88-2.31.88-3.73-.29-2.66-.88-3.71Z" fill="#ffffff" data-color="1"/>
        <path d="M394.52 181.75c1.29.67 2.29 1.67 3.02 3s1.09 2.93 1.09 4.8v12.19h-4.24v-11.55c0-1.85-.46-3.27-1.39-4.26-.92-.99-2.19-1.48-3.79-1.48s-2.87.49-3.81 1.48q-1.41 1.485-1.41 4.26v11.55h-4.27v-20.66h4.27v2.36c.7-.85 1.59-1.51 2.68-1.99s2.24-.71 3.47-.71c1.63 0 3.08.34 4.37 1.01Z" fill="#ffffff" data-color="1"/>
        <path d="M407.85 198.26h9.38v3.49H402.9v-3.49l9.41-13.69h-9.41v-3.49h14.33v3.49z" fill="#ffffff" data-color="1"/>
        <path d="M421.6 185.8c.86-1.6 2.04-2.84 3.52-3.73 1.49-.89 3.13-1.33 4.93-1.33 1.63 0 3.04.32 4.26.96 1.21.64 2.18 1.43 2.91 2.38v-3h4.31v20.66h-4.31v-3.08c-.73.98-1.71 1.79-2.96 2.44s-2.68.98-4.27.98c-1.78 0-3.4-.46-4.88-1.37s-2.64-2.19-3.51-3.82c-.86-1.64-1.29-3.49-1.29-5.57s.43-3.91 1.29-5.51Zm14.73 1.88q-.885-1.575-2.31-2.4c-.95-.55-1.98-.83-3.08-.83s-2.13.27-3.08.81-1.72 1.33-2.31 2.36c-.59 1.04-.88 2.27-.88 3.69s.29 2.68.88 3.75c.59 1.08 1.36 1.89 2.33 2.46q1.44.84 3.06.84c1.62 0 2.12-.27 3.08-.83.95-.55 1.72-1.36 2.31-2.42s.88-2.31.88-3.73-.29-2.66-.88-3.71Z" fill="#ffffff" data-color="1"/>
        <path d="M456.77 185.8c.86-1.6 2.04-2.84 3.52-3.73 1.49-.89 3.14-1.33 4.97-1.33 1.6 0 3.02.33 4.26.98s2.19 1.44 2.87 2.36v-3h4.31v30.49h-4.31v-12.82c-.68.92-1.65 1.71-2.93 2.36-1.27.65-2.72.98-4.35.98-1.78 0-3.39-.46-4.86-1.37-1.46-.91-2.62-2.19-3.49-3.82s-1.29-3.49-1.29-5.57.43-3.91 1.29-5.51Zm14.74 1.88q-.885-1.575-2.31-2.4c-.95-.55-1.98-.83-3.08-.83s-2.13.27-3.08.81-1.72 1.33-2.31 2.36c-.59 1.04-.88 2.27-.88 3.69s.29 2.68.88 3.75c.59 1.08 1.36 1.89 2.33 2.46q1.44.84 3.06.84c1.62 0 2.12-.27 3.08-.83.95-.55 1.72-1.36 2.31-2.42s.88-2.31.88-3.73-.29-2.66-.88-3.71Z" fill="#ffffff" data-color="1"/>
        <path d="M501.04 181.08v20.66h-4.28v-2.44q-1.02 1.275-2.64 2.01a8.3 8.3 0 0 1-3.47.73c-1.63 0-3.08-.34-4.37-1.01s-2.3-1.67-3.04-3q-1.11-1.995-1.11-4.8v-12.15h4.24v11.51c0 1.85.46 3.27 1.39 4.26s2.19 1.48 3.79 1.48 2.87-.49 3.81-1.48q1.41-1.485 1.41-4.26v-11.51h4.28Z" fill="#ffffff" data-color="1"/>
        <path d="M525.45 193h-15.79c.12 1.65.74 2.98 1.84 3.97q1.65 1.5 4.05 1.5c2.3 0 3.92-.96 4.87-2.89h4.61c-.62 1.9-1.76 3.46-3.39 4.67-1.64 1.21-3.67 1.82-6.09 1.82-1.98 0-3.74-.44-5.31-1.33a9.46 9.46 0 0 1-3.67-3.75c-.89-1.61-1.33-3.48-1.33-5.61s.43-3.99 1.29-5.61 2.07-2.86 3.64-3.73 3.36-1.31 5.38-1.31 3.69.43 5.21 1.27c1.53.85 2.71 2.04 3.56 3.58s1.27 3.31 1.27 5.31c0 .77-.05 1.48-.15 2.1Zm-4.31-3.45c-.03-1.57-.59-2.84-1.69-3.79s-2.46-1.42-4.09-1.42c-1.48 0-2.74.47-3.79 1.41s-1.68 2.21-1.87 3.81h11.44Z" fill="#ffffff" data-color="1"/>
        <path d="M548.22 184.57h-3.82v17.18h-4.31v-17.18h-2.44v-3.49h2.44v-1.46c0-2.37.63-4.11 1.89-5.19 1.26-1.09 3.24-1.63 5.94-1.63v3.56c-1.3 0-2.21.24-2.74.73s-.79 1.33-.79 2.53v1.46h3.82v3.49Z" fill="#ffffff" data-color="1"/>
        <path d="M556.28 173.99v27.75h-4.27v-27.75z" fill="#ffffff" data-color="1"/>
        <path d="M565.58 200.75c-1.57-.89-2.81-2.14-3.71-3.75q-1.35-2.415-1.35-5.61c0-3.195.46-3.96 1.39-5.59a9.56 9.56 0 0 1 3.79-3.75c1.6-.88 3.39-1.31 5.36-1.31s3.76.44 5.36 1.31c1.6.88 2.86 2.13 3.79 3.75.92 1.63 1.39 3.49 1.39 5.59s-.47 3.96-1.42 5.59a9.83 9.83 0 0 1-3.88 3.77c-1.64.89-3.44 1.33-5.42 1.33s-3.71-.44-5.29-1.33Zm8.38-3.17c.96-.53 1.74-1.31 2.34-2.36s.9-2.32.9-3.82-.29-2.77-.86-3.81c-.58-1.04-1.34-1.82-2.29-2.34-.95-.53-1.98-.79-3.08-.79s-2.12.26-3.06.79-1.68 1.31-2.23 2.34c-.55 1.04-.83 2.31-.83 3.81 0 2.23.57 3.94 1.71 5.16 1.14 1.21 2.57 1.82 4.29 1.82 1.1 0 2.13-.26 3.09-.79Z" fill="#ffffff" data-color="1"/>
        <path d="M592.6 181.62c1.04-.59 2.27-.88 3.69-.88v4.43h-1.09c-1.68 0-2.94.42-3.81 1.27-.86.85-1.29 2.32-1.29 4.42v10.88h-4.27v-20.66h4.27v3a6.75 6.75 0 0 1 2.49-2.46Z" fill="#ffffff" data-color="1"/>
        <path d="M619.02 193h-15.79c.12 1.65.74 2.98 1.84 3.97q1.65 1.5 4.05 1.5c2.3 0 3.92-.96 4.87-2.89h4.61c-.62 1.9-1.76 3.46-3.39 4.67s-3.67 1.82-6.09 1.82c-1.98 0-3.74-.44-5.31-1.33a9.46 9.46 0 0 1-3.67-3.75c-.89-1.61-1.33-3.48-1.33-5.61s.43-3.99 1.29-5.61 2.07-2.86 3.64-3.73c1.56-.88 3.36-1.31 5.38-1.31s3.69.43 5.21 1.27c1.53.85 2.71 2.04 3.56 3.58s1.27 3.31 1.27 5.31c0 .77-.05 1.48-.15 2.1Zm-4.31-3.45c-.03-1.57-.59-2.84-1.69-3.79s-2.46-1.42-4.09-1.42c-1.48 0-2.74.47-3.79 1.41s-1.68 2.21-1.87 3.81h11.44Z" fill="#ffffff" data-color="1"/>
        <path d="M623.24 185.79c.86-1.61 2.06-2.86 3.58-3.73 1.52-.88 3.28-1.31 5.25-1.31 2.5 0 4.57.59 6.21 1.78s2.74 2.88 3.32 5.08h-4.61c-.37-1.02-.98-1.82-1.8-2.4-.83-.57-1.86-.86-3.11-.86-1.75 0-3.14.62-4.18 1.86q-1.56 1.86-1.56 5.19c0 3.33.52 3.96 1.56 5.21s2.43 1.87 4.18 1.87c2.47 0 4.11-1.09 4.91-3.26h4.61c-.6 2.1-1.72 3.77-3.38 5.01q-2.475 1.86-6.15 1.86c-1.98 0-3.73-.44-5.25-1.33s-2.72-2.14-3.58-3.75q-1.29-2.415-1.29-5.61c0-3.195.43-3.99 1.29-5.61" fill="#ffffff" data-color="1"/>
        <path d="M664.66 193h-15.79c.12 1.65.74 2.98 1.84 3.97q1.65 1.5 4.05 1.5c2.3 0 3.92-.96 4.87-2.89h4.61c-.62 1.9-1.76 3.46-3.39 4.67s-3.67 1.82-6.09 1.82c-1.98 0-3.74-.44-5.31-1.33a9.46 9.46 0 0 1-3.67-3.75c-.89-1.61-1.33-3.48-1.33-5.61s.43-3.99 1.29-5.61c.86-1.61 2.07-2.86 3.64-3.73s3.36-1.31 5.38-1.31 3.69.43 5.21 1.27c1.53.85 2.71 2.04 3.56 3.58s1.27 3.31 1.27 5.31c0 .77-.05 1.48-.15 2.1Zm-4.32-3.45c-.03-1.57-.59-2.84-1.69-3.79s-2.46-1.42-4.09-1.42c-1.48 0-2.74.47-3.79 1.41s-1.68 2.21-1.87 3.81h11.44Z" fill="#ffffff" data-color="1"/>
        <path d="M697.55 193h-15.79c.12 1.65.74 2.98 1.84 3.97q1.65 1.5 4.05 1.5c2.3 0 3.92-.96 4.87-2.89h4.61c-.62 1.9-1.76 3.46-3.39 4.67-1.64 1.21-3.67 1.82-6.09 1.82-1.98 0-3.74-.44-5.31-1.33a9.46 9.46 0 0 1-3.67-3.75c-.89-1.61-1.33-3.48-1.33-5.61s.43-3.99 1.29-5.61c.86-1.61 2.07-2.86 3.64-3.73s3.36-1.31 5.38-1.31 3.69.43 5.21 1.27c1.53.85 2.71 2.04 3.56 3.58s1.27 3.31 1.27 5.31c0 .77-.05 1.48-.15 2.1Zm-4.32-3.45c-.03-1.57-.59-2.84-1.69-3.79s-2.46-1.42-4.09-1.42c-1.48 0-2.74.47-3.79 1.41s-1.68 2.21-1.87 3.81h11.44Z" fill="#ffffff" data-color="1"/>
        <path d="M716.69 181.75c1.29.67 2.29 1.67 3.02 3s1.09 2.93 1.09 4.8v12.19h-4.24v-11.55c0-1.85-.46-3.27-1.39-4.26-.92-.99-2.19-1.48-3.79-1.48s-2.87.49-3.81 1.48q-1.41 1.485-1.41 4.26v11.55h-4.27v-20.66h4.27v2.36c.7-.85 1.59-1.51 2.68-1.99a8.65 8.65 0 0 1 3.47-.71c1.63 0 3.08.34 4.37 1.01Z" fill="#ffffff" data-color="1"/>
        <path d="M735.85 185.79c.86-1.61 2.06-2.86 3.58-3.73 1.52-.88 3.28-1.31 5.25-1.31 2.5 0 4.57.59 6.21 1.78s2.74 2.88 3.32 5.08h-4.61c-.37-1.02-.98-1.82-1.8-2.4-.83-.57-1.86-.86-3.11-.86-1.75 0-3.14.62-4.18 1.86q-1.56 1.86-1.56 5.19c0 3.33.52 3.96 1.56 5.21s2.43 1.87 4.18 1.87c2.47 0 4.11-1.09 4.91-3.26h4.61c-.6 2.1-1.72 3.77-3.38 5.01s-3.7 1.86-6.15 1.86c-1.98 0-3.73-.44-5.25-1.33s-2.72-2.14-3.58-3.75-1.29-3.48-1.29-5.61.43-3.99 1.29-5.61" fill="#ffffff" data-color="1"/>
        <path d="M758.35 185.8c.86-1.6 2.04-2.84 3.52-3.73 1.49-.89 3.13-1.33 4.93-1.33 1.63 0 3.04.32 4.26.96 1.21.64 2.18 1.43 2.91 2.38v-3h4.31v20.66h-4.31v-3.08c-.73.98-1.71 1.79-2.96 2.44s-2.68.98-4.27.98c-1.78 0-3.4-.46-4.88-1.37s-2.64-2.19-3.51-3.82c-.86-1.64-1.29-3.49-1.29-5.57s.43-3.91 1.29-5.51Zm14.74 1.88q-.885-1.575-2.31-2.4c-.95-.55-1.98-.83-3.08-.83s-2.13.27-3.08.81-1.72 1.33-2.31 2.36c-.59 1.04-.88 2.27-.88 3.69s.29 2.68.88 3.75c.59 1.08 1.36 1.89 2.33 2.46q1.44.84 3.06.84c1.62 0 2.12-.27 3.08-.83.95-.55 1.72-1.36 2.31-2.42s.88-2.31.88-3.73-.29-2.66-.88-3.71Z" fill="#ffffff" data-color="1"/>
        <path d="M783.78 185.8c.86-1.6 2.04-2.84 3.52-3.73 1.49-.89 3.14-1.33 4.97-1.33 1.35 0 2.68.29 3.99.88s2.36 1.37 3.13 2.34v-9.98h4.31v27.75h-4.31v-3.11c-.7 1-1.67 1.83-2.91 2.48s-2.66.98-4.26.98c-1.8 0-3.44-.46-4.93-1.37s-2.66-2.19-3.52-3.82c-.86-1.64-1.29-3.49-1.29-5.57s.43-3.91 1.29-5.51Zm14.74 1.88q-.885-1.575-2.31-2.4c-.95-.55-1.98-.83-3.08-.83s-2.13.27-3.08.81-1.72 1.33-2.31 2.36c-.59 1.04-.88 2.27-.88 3.69s.29 2.68.88 3.75c.59 1.08 1.36 1.89 2.33 2.46q1.44.84 3.06.84c1.62 0 2.12-.27 3.08-.83.95-.55 1.72-1.36 2.31-2.42s.88-2.31.88-3.73-.29-2.66-.88-3.71Z" fill="#ffffff" data-color="1"/>
        <path d="M809.2 185.8c.86-1.6 2.04-2.84 3.52-3.73 1.49-.89 3.13-1.33 4.93-1.33 1.63 0 3.04.32 4.26.96 1.21.64 2.18 1.43 2.91 2.38v-3h4.31v20.66h-4.31v-3.08c-.73.98-1.71 1.79-2.96 2.44s-2.68.98-4.27.98c-1.78 0-3.4-.46-4.88-1.37s-2.64-2.19-3.51-3.82c-.86-1.64-1.29-3.49-1.29-5.57s.43-3.91 1.29-5.51Zm14.74 1.88q-.885-1.575-2.31-2.4c-.95-.55-1.98-.83-3.08-.83s-2.13.27-3.08.81-1.72 1.33-2.31 2.36c-.59 1.04-.88 2.27-.88 3.69s.29 2.68.88 3.75c.59 1.08 1.36 1.89 2.33 2.46q1.44.84 3.06.84c1.62 0 2.12-.27 3.08-.83.95-.55 1.72-1.36 2.31-2.42s.88-2.31.88-3.73-.29-2.66-.88-3.71Z" fill="#ffffff" data-color="1"/>
        <path d="M851.75 181.72c1.25-.65 2.66-.98 4.24-.98 1.8 0 3.44.44 4.93 1.33s2.66 2.13 3.51 3.73 1.28 3.44 1.28 5.51-.43 3.93-1.28 5.57-2.02 2.91-3.51 3.82-3.13 1.37-4.93 1.37q-2.37 0-4.2-.96c-1.23-.64-2.23-1.43-3-2.38v12.82h-4.27v-30.49h4.27v3.04c.72-.95 1.71-1.75 2.96-2.4Zm8.72 5.9c-.59-1.04-1.36-1.83-2.32-2.36q-1.44-.81-3.09-.81c-1.65 0-2.09.28-3.06.83-.96.55-1.74 1.35-2.33 2.4s-.88 2.29-.88 3.71.29 2.67.88 3.73 1.36 1.87 2.33 2.42a6.08 6.08 0 0 0 6.15-.01c.96-.56 1.74-1.38 2.32-2.46.59-1.07.88-2.32.88-3.75s-.29-2.66-.88-3.69Z" fill="#ffffff" data-color="1"/>
        <path d="M869.81 185.8c.86-1.6 2.04-2.84 3.52-3.73 1.49-.89 3.13-1.33 4.93-1.33 1.63 0 3.04.32 4.26.96 1.21.64 2.18 1.43 2.91 2.38v-3h4.31v20.66h-4.31v-3.08c-.73.98-1.71 1.79-2.96 2.44s-2.68.98-4.27.98c-1.78 0-3.4-.46-4.88-1.37s-2.64-2.19-3.51-3.82c-.86-1.64-1.29-3.49-1.29-5.57s.43-3.91 1.29-5.51Zm14.73 1.88q-.885-1.575-2.31-2.4c-.95-.55-1.98-.83-3.08-.83s-2.13.27-3.08.81-1.72 1.33-2.31 2.36c-.59 1.04-.88 2.27-.88 3.69s.29 2.68.88 3.75c.59 1.08 1.36 1.89 2.33 2.46q1.44.84 3.06.84c1.62 0 2.12-.27 3.08-.83.95-.55 1.72-1.36 2.31-2.42s.88-2.31.88-3.73-.29-2.66-.88-3.71Z" fill="#ffffff" data-color="1"/>
        <path d="M898.5 201.2q-1.935-.885-3.06-2.4a5.96 5.96 0 0 1-1.2-3.39h4.42c.08.88.49 1.61 1.26 2.19.76.59 1.72.88 2.87.88s2.13-.23 2.79-.69.99-1.06.99-1.78c0-.77-.37-1.35-1.11-1.72-.74-.38-1.91-.79-3.51-1.24-1.55-.42-2.81-.84-3.79-1.24s-1.82-1.01-2.53-1.84-1.07-1.91-1.07-3.26c0-1.1.33-2.11.98-3.02q.975-1.365 2.79-2.16c1.21-.53 2.61-.79 4.18-.79 2.35 0 4.24.59 5.68 1.78q2.16 1.785 2.31 4.86h-4.28c-.07-.92-.45-1.66-1.13-2.21s-1.59-.83-2.74-.83-1.99.21-2.59.64c-.6.42-.9.99-.9 1.69 0 .55.2 1.01.6 1.39.4.37.89.67 1.46.88q.855.315 2.55.81c1.5.4 2.73.81 3.69 1.22s1.79 1.02 2.49 1.82 1.06 1.86 1.09 3.19c0 1.18-.33 2.22-.98 3.15s-1.57 1.65-2.76 2.18-2.58.79-4.18.79-3.08-.29-4.37-.88Z" fill="#ffffff" data-color="1"/>
        <path d="M919.06 200.75c-1.57-.89-2.81-2.14-3.71-3.75q-1.35-2.415-1.35-5.61c0-3.195.46-3.96 1.39-5.59a9.56 9.56 0 0 1 3.79-3.75c1.6-.88 3.39-1.31 5.36-1.31s3.76.44 5.36 1.31c1.6.88 2.86 2.13 3.79 3.75s1.39 3.49 1.39 5.59-.47 3.96-1.42 5.59a9.83 9.83 0 0 1-3.88 3.77c-1.64.89-3.44 1.33-5.42 1.33s-3.71-.44-5.29-1.33Zm8.39-3.17c.96-.53 1.74-1.31 2.34-2.36s.9-2.32.9-3.82-.29-2.77-.86-3.81c-.58-1.04-1.34-1.82-2.29-2.34s-1.98-.79-3.08-.79-2.12.26-3.06.79-1.68 1.31-2.23 2.34c-.55 1.04-.83 2.31-.83 3.81 0 2.23.57 3.94 1.71 5.16 1.14 1.21 2.57 1.82 4.29 1.82 1.1 0 2.13-.26 3.09-.79Z" fill="#ffffff" data-color="1"/>
        <path d="M255.81 158.81V77.68h20.25l-.06 65.06h32.02v16.07H255.8Z" fill="#ffffff" data-color="1"/>
        <path d="m375.98 158.81-3.9-12.9h-30.83l-3.85 12.9h-20.93l24.44-81.13h31.51l24.44 81.13zm-29.99-28.97h21.33l-10.64-35.59z" fill="#ffffff" data-color="1"/>
        <path d="m463.72 99.63-20.25 1.47q-.795-4.185-3.54-6.48c-1.83-1.53-4.14-2.29-6.93-2.29-3.32 0-5.88.71-7.69 2.12-1.81 1.42-2.72 3.4-2.72 5.97 0 .94.22 1.8.65 2.57s.97 1.42 1.61 1.95 1.52 1.06 2.63 1.58c1.11.53 2.1.93 2.97 1.22s2 .61 3.39.99c3.28.98 6.03 1.85 8.26 2.6 2.22.75 4.57 1.62 7.04 2.6s4.5 1.93 6.08 2.86 3.14 2.02 4.67 3.28 2.72 2.59 3.56 3.99c.85 1.4 1.52 3 2.01 4.81s.74 3.79.74 5.94c-.04 8.11-2.96 14.29-8.77 18.56s-13.71 6.39-23.7 6.39-17.56-2.11-23.48-6.34c-5.92-4.22-9.11-10.33-9.56-18.33l20.25-1.41c.45 3.17 1.82 5.6 4.1 7.3s5.16 2.55 8.63 2.55 6.49-.71 8.71-2.12c2.23-1.41 3.36-3.46 3.39-6.14.04-1.17-.27-2.27-.93-3.31s-1.48-1.92-2.46-2.66-2.28-1.48-3.9-2.24c-1.62-.75-3.12-1.36-4.5-1.81s-3.06-1-5.06-1.64c-2.23-.68-4.06-1.25-5.52-1.73a186 186 0 0 1-4.87-1.67c-1.79-.64-3.23-1.24-4.3-1.78-1.08-.55-2.26-1.21-3.56-1.98s-2.32-1.55-3.06-2.32c-.73-.77-1.49-1.67-2.26-2.69s-1.35-2.11-1.73-3.28-.69-2.46-.93-3.88c-.25-1.41-.37-2.99-.37-4.72 0-5.02 1.37-9.28 4.1-12.79s6.36-6.06 10.89-7.67c4.53-1.6 9.75-2.4 15.67-2.4 8.75 0 15.92 1.95 21.5 5.86 5.58 3.9 8.66 9.59 9.22 17.06Z" fill="#ffffff" data-color="1"/>
        <path d="M506.49 77.68h57.31v16.07h-37.11v17.09h33.55v16.12h-33.49v31.85H506.5V77.68Z" fill="#ffffff" data-color="1"/>
        <path d="M577.44 158.81V77.68h20.25l-.06 65.06h32.02v16.07h-52.22Z" fill="#ffffff" data-color="1"/>
        <path d="M676.56 159.77c-8.03 0-15.3-1.73-21.78-5.2-6.49-3.47-11.62-8.38-15.39-14.74-3.77-6.35-5.66-13.55-5.66-21.58s1.89-15.23 5.66-21.58c3.77-6.36 8.9-11.27 15.39-14.74s13.75-5.2 21.78-5.2 15.25 1.73 21.75 5.2c6.51 3.47 11.64 8.38 15.39 14.74s5.63 13.55 5.63 21.58-1.88 15.23-5.63 21.58c-3.75 6.36-8.88 11.27-15.39 14.74s-13.76 5.2-21.75 5.2m-16.29-25.09c4.45 4.36 9.88 6.53 16.29 6.53s11.84-2.18 16.29-6.53c4.45-4.36 6.68-9.83 6.68-16.44s-2.22-12.12-6.65-16.44q-6.645-6.48-16.32-6.48c-9.675 0-11.89 2.16-16.32 6.48s-6.65 9.8-6.65 16.44 2.22 12.08 6.68 16.44" fill="#ffffff" data-color="1"/>
        <path d="M796.44 107.04c0 6.11-1.4 11.44-4.19 15.98-2.79 4.55-6.83 7.95-12.11 10.21l15.67 25.57h-20.37l-13.58-22.52h-11.48v22.52h-20.25V77.67h33.72c10.37 0 18.4 2.7 24.07 8.09 5.68 5.39 8.51 12.48 8.51 21.27Zm-46.11 13.13h11.37c4.26 0 7.74-1.25 10.44-3.76q4.05-3.765 4.05-9.36.06-5.595-3.99-9.45c-2.7-2.57-6.19-3.85-10.49-3.85h-11.37v26.42Z" fill="#ffffff" data-color="1"/>
        <path d="M808.27 77.68h56.8v16.07h-36.55v17.09h33.04v16.12h-33.04v15.78h38.3v16.07h-58.56V77.68Z" fill="#ffffff" data-color="1"/>
        <path d="m939.07 99.63-20.25 1.47q-.795-4.185-3.54-6.48c-1.83-1.53-4.14-2.29-6.93-2.29-3.32 0-5.88.71-7.69 2.12-1.81 1.42-2.72 3.4-2.72 5.97 0 .94.22 1.8.65 2.57s.97 1.42 1.61 1.95 1.52 1.06 2.63 1.58c1.11.53 2.1.93 2.97 1.22s2 .61 3.39.99c3.28.98 6.03 1.85 8.26 2.6 2.22.75 4.57 1.62 7.04 2.6s4.5 1.93 6.08 2.86 3.14 2.02 4.67 3.28 2.72 2.59 3.56 3.99c.85 1.4 1.52 3 2.01 4.81s.74 3.79.74 5.94c-.04 8.11-2.96 14.29-8.77 18.56s-13.71 6.39-23.7 6.39-17.56-2.11-23.48-6.34c-5.92-4.22-9.11-10.33-9.56-18.33l20.25-1.41c.45 3.17 1.82 5.6 4.1 7.3s5.16 2.55 8.63 2.55 6.49-.71 8.71-2.12c2.23-1.41 3.36-3.46 3.39-6.14.04-1.17-.27-2.27-.93-3.31s-1.48-1.92-2.46-2.66-2.28-1.48-3.9-2.24c-1.62-.75-3.12-1.36-4.5-1.81s-3.06-1-5.06-1.64c-2.23-.68-4.06-1.25-5.52-1.73a186 186 0 0 1-4.87-1.67c-1.79-.64-3.23-1.24-4.3-1.78-1.08-.55-2.26-1.21-3.56-1.98s-2.32-1.55-3.06-2.32c-.73-.77-1.49-1.67-2.26-2.69s-1.35-2.11-1.73-3.28-.69-2.46-.93-3.88c-.25-1.41-.37-2.99-.37-4.72 0-5.02 1.37-9.28 4.1-12.79s6.36-6.06 10.89-7.67c4.53-1.6 9.75-2.4 15.67-2.4 8.75 0 15.92 1.95 21.5 5.86s8.66 9.59 9.22 17.06Z" fill="#ffffff" data-color="1"/>
    </g>
</svg>
